<svg xmlns="http://www.w3.org/2000/svg" viewBox="0 0 129.17 16.62" data-guides="{&quot;vertical&quot;:[],&quot;horizontal&quot;:[]}"><defs/><path fill="#F9F9F9" stroke="none" fill-opacity="1" stroke-width="1" stroke-opacity="1" id="tSvg815b40047" title="Path 1" d="M9.4863 10.6094C10.6257 10.6094 11.765 10.6094 12.9043 10.6094C12.8587 11.599 12.5918 12.4714 12.1035 13.2266C11.6152 13.9818 10.9381 14.571 10.0723 14.9941C9.2129 15.4108 8.1973 15.6191 7.0254 15.6191C6.0749 15.6191 5.2253 15.4596 4.4766 15.1406C3.7344 14.8216 3.1029 14.3626 2.582 13.7637C2.0677 13.1647 1.6738 12.4388 1.4004 11.5859C1.1335 10.7331 1 9.7728 1 8.7051C1 8.4479 1 8.1908 1 7.9336C1 6.8659 1.14 5.9056 1.4199 5.0527C1.7064 4.1934 2.11 3.4642 2.6309 2.8652C3.1582 2.2598 3.7897 1.7975 4.5254 1.4785C5.2611 1.1595 6.0781 1 6.9766 1C8.2135 1 9.2585 1.2214 10.1113 1.6641C10.9642 2.1068 11.625 2.7155 12.0938 3.4902C12.5625 4.2585 12.8392 5.1341 12.9238 6.1172C11.7845 6.1172 10.6452 6.1172 9.5059 6.1172C9.4928 5.5833 9.4017 5.1374 9.2324 4.7793C9.0631 4.4147 8.7962 4.1413 8.4316 3.959C8.0671 3.7767 7.582 3.6856 6.9766 3.6856C6.5534 3.6856 6.1856 3.7637 5.8731 3.9199C5.5606 4.0762 5.3001 4.3236 5.0918 4.6621C4.8835 5.0006 4.7272 5.4401 4.6231 5.9805C4.5254 6.5143 4.4766 7.1588 4.4766 7.9141C4.4766 8.1777 4.4766 8.4414 4.4766 8.7051C4.4766 9.4603 4.5221 10.1048 4.6133 10.6387C4.7044 11.1725 4.8509 11.6087 5.0527 11.9473C5.2546 12.2858 5.515 12.5365 5.834 12.6992C6.1595 12.8555 6.5566 12.9336 7.0254 12.9336C7.5462 12.9336 7.9857 12.8522 8.3438 12.6895C8.7018 12.5202 8.9785 12.2663 9.1738 11.9277C9.3691 11.5827 9.4733 11.1432 9.4863 10.6094Z"/><path fill="#F9F9F9" stroke="none" fill-opacity="1" stroke-width="1" stroke-opacity="1" id="tSvga5094d1d49" title="Path 2" d="M22.7508 4.1934C21.5952 7.9368 20.4396 11.6803 19.284 15.4238C18.0568 15.4238 16.8295 15.4238 15.6023 15.4238C17.3439 10.6842 19.0854 5.9447 20.827 1.2051C21.605 1.2051 22.3829 1.2051 23.1609 1.2051C23.0242 2.2012 22.8875 3.1973 22.7508 4.1934ZM25.6219 15.4238C24.463 11.6803 23.3042 7.9368 22.1453 4.1934C21.9956 3.1973 21.8458 2.2012 21.6961 1.2051C22.4839 1.2051 23.2716 1.2051 24.0594 1.2051C25.8107 5.9447 27.562 10.6842 29.3133 15.4238C28.0828 15.4238 26.8524 15.4238 25.6219 15.4238ZM25.4852 10.1211C25.4852 11.0033 25.4852 11.8854 25.4852 12.7676C23.0535 12.7676 20.6219 12.7676 18.1902 12.7676C18.1902 11.8854 18.1902 11.0033 18.1902 10.1211C20.6219 10.1211 23.0535 10.1211 25.4852 10.1211Z"/><path fill="#F9F9F9" stroke="none" fill-opacity="1" stroke-width="1" stroke-opacity="1" id="tSvg82ca40ebbe" title="Path 3" d="M36.2008 1.2051C36.2008 5.9447 36.2008 10.6842 36.2008 15.4238C35.0615 15.4238 33.9221 15.4238 32.7828 15.4238C32.7828 10.6842 32.7828 5.9447 32.7828 1.2051C33.9221 1.2051 35.0615 1.2051 36.2008 1.2051Z"/><path fill="#F9F9F9" stroke="none" fill-opacity="1" stroke-width="1" stroke-opacity="1" id="tSvg83960fe8f0" title="Path 4" d="M48.8988 10.6094C50.0381 10.6094 51.1775 10.6094 52.3168 10.6094C52.2712 11.599 52.0043 12.4714 51.516 13.2266C51.0277 13.9818 50.3506 14.571 49.4848 14.9941C48.6254 15.4108 47.6098 15.6191 46.4379 15.6191C45.4874 15.6191 44.6378 15.4596 43.8891 15.1406C43.1469 14.8216 42.5154 14.3626 41.9945 13.7637C41.4802 13.1647 41.0863 12.4388 40.8129 11.5859C40.546 10.7331 40.4125 9.7728 40.4125 8.7051C40.4125 8.4479 40.4125 8.1908 40.4125 7.9336C40.4125 6.8659 40.5525 5.9056 40.8324 5.0527C41.1189 4.1934 41.5225 3.4642 42.0434 2.8652C42.5707 2.2598 43.2022 1.7975 43.9379 1.4785C44.6736 1.1595 45.4906 1 46.3891 1C47.626 1 48.671 1.2214 49.5238 1.6641C50.3767 2.1068 51.0375 2.7155 51.5062 3.4902C51.975 4.2585 52.2517 5.1341 52.3363 6.1172C51.197 6.1172 50.0577 6.1172 48.9184 6.1172C48.9053 5.5833 48.8142 5.1374 48.6449 4.7793C48.4756 4.4147 48.2087 4.1413 47.8441 3.959C47.4796 3.7767 46.9945 3.6856 46.3891 3.6856C45.9659 3.6856 45.598 3.7637 45.2855 3.9199C44.973 4.0762 44.7126 4.3236 44.5043 4.6621C44.296 5.0006 44.1397 5.4401 44.0355 5.9805C43.9379 6.5143 43.8891 7.1588 43.8891 7.9141C43.8891 8.1777 43.8891 8.4414 43.8891 8.7051C43.8891 9.4603 43.9346 10.1048 44.0258 10.6387C44.1169 11.1725 44.2634 11.6087 44.4652 11.9473C44.6671 12.2858 44.9275 12.5365 45.2465 12.6992C45.572 12.8555 45.9691 12.9336 46.4379 12.9336C46.9587 12.9336 47.3982 12.8522 47.7562 12.6895C48.1143 12.5202 48.391 12.2663 48.5863 11.9277C48.7816 11.5827 48.8858 11.1432 48.8988 10.6094Z"/><path fill="#F9F9F9" stroke="none" fill-opacity="1" stroke-width="1" stroke-opacity="1" id="tSvg19191e05002" title="Path 5" d="M65.718 6.8496C65.718 7.7285 65.718 8.6074 65.718 9.4863C63.2863 9.4863 60.8547 9.4863 58.423 9.4863C58.423 8.6074 58.423 7.7285 58.423 6.8496C60.8547 6.8496 63.2863 6.8496 65.718 6.8496ZM59.5656 1.2051C59.5656 5.9447 59.5656 10.6842 59.5656 15.4238C58.423 15.4238 57.2805 15.4238 56.1379 15.4238C56.1379 10.6842 56.1379 5.9447 56.1379 1.2051C57.2805 1.2051 58.423 1.2051 59.5656 1.2051ZM68.0227 1.2051C68.0227 5.9447 68.0227 10.6842 68.0227 15.4238C66.8834 15.4238 65.744 15.4238 64.6047 15.4238C64.6047 10.6842 64.6047 5.9447 64.6047 1.2051C65.744 1.2051 66.8834 1.2051 68.0227 1.2051Z"/><path fill="#F9F9F9" stroke="none" fill-opacity="1" stroke-width="1" stroke-opacity="1" id="tSvg159ed64c358" title="Path 6" d="M78.6016 4.1934C77.446 7.9368 76.2904 11.6803 75.1348 15.4238C73.9076 15.4238 72.6803 15.4238 71.4531 15.4238C73.1946 10.6842 74.9362 5.9447 76.6777 1.2051C77.4557 1.2051 78.2337 1.2051 79.0117 1.2051C78.875 2.2012 78.7383 3.1973 78.6016 4.1934ZM81.4727 15.4238C80.3138 11.6803 79.155 7.9368 77.9961 4.1934C77.8464 3.1973 77.6966 2.2012 77.5469 1.2051C78.3347 1.2051 79.1224 1.2051 79.9102 1.2051C81.6615 5.9447 83.4128 10.6842 85.1641 15.4238C83.9336 15.4238 82.7032 15.4238 81.4727 15.4238ZM81.3359 10.1211C81.3359 11.0033 81.3359 11.8854 81.3359 12.7676C78.9043 12.7676 76.4726 12.7676 74.041 12.7676C74.041 11.8854 74.041 11.0033 74.041 10.1211C76.4726 10.1211 78.9043 10.1211 81.3359 10.1211Z"/><path fill="#f9f9f9" stroke="none" fill-opacity="1" stroke-width="1" stroke-opacity="1" id="tSvgc03df6870e" title="Path 7" d="M94.1219 1.2051C94.1219 5.9447 94.1219 10.6842 94.1219 15.4238C92.9793 15.4238 91.8367 15.4238 90.6941 15.4238C90.6941 10.6842 90.6941 5.9447 90.6941 1.2051C91.8367 1.2051 92.9793 1.2051 94.1219 1.2051ZM98.3992 1.2051C98.3992 2.0872 98.3992 2.9694 98.3992 3.8516C94.4376 3.8516 90.4761 3.8516 86.5145 3.8516C86.5145 2.9694 86.5145 2.0872 86.5145 1.2051C90.4761 1.2051 94.4376 1.2051 98.3992 1.2051Z"/><path fill="#F9F9F9" stroke="none" fill-opacity="1" stroke-width="1" stroke-opacity="1" id="tSvg335b7d38e6" title="Path 8" d="M99.5934 13.8809C99.5934 13.4121 99.7626 13.0215 100.1012 12.709C100.4397 12.39 100.8759 12.2305 101.41 12.2305C101.95 12.2305 102.386 12.39 102.718 12.709C103.057 13.0215 103.226 13.4121 103.226 13.8809C103.226 14.3496 103.057 14.7435 102.718 15.0625C102.386 15.375 101.95 15.5312 101.41 15.5312C100.8759 15.5312 100.4397 15.375 100.1012 15.0625C99.7626 14.7435 99.5934 14.3496 99.5934 13.8809Z"/><path fill="#f9f9f9" stroke="none" fill-opacity="1" stroke-width="1" stroke-opacity="1" id="tSvg1793eb82eb0" title="Path 9" d="M114.518 4.3594C112.7733 8.0475 111.0287 11.7357 109.284 15.4238C108.05 15.4238 106.816 15.4238 105.582 15.4238C108.095 10.6842 110.608 5.9447 113.121 1.2051C113.909 1.2051 114.697 1.2051 115.485 1.2051C115.1627 2.2565 114.8403 3.3079 114.518 4.3594ZM115.416 15.4238C114.9343 11.6217 114.4527 7.8197 113.971 4.0176C113.997 3.0801 114.023 2.1426 114.049 1.2051C114.7913 1.2051 115.5337 1.2051 116.276 1.2051C117.1517 5.9447 118.0273 10.6842 118.903 15.4238C117.7407 15.4238 116.5783 15.4238 115.416 15.4238ZM116.178 10.1211C116.0217 11.0033 115.8653 11.8854 115.709 12.7676C113.3427 12.7676 110.9763 12.7676 108.61 12.7676C108.7663 11.8854 108.9227 11.0033 109.079 10.1211C111.4453 10.1211 113.8117 10.1211 116.178 10.1211Z"/><path fill="#f9f9f9" stroke="none" fill-opacity="1" stroke-width="1" stroke-opacity="1" id="tSvg1a7fd7b921" title="Path 10" d="M128.173 1.2051C127.3527 5.9447 126.5323 10.6842 125.712 15.4238C124.5987 15.4238 123.4853 15.4238 122.372 15.4238C123.1957 10.6842 124.0193 5.9447 124.843 1.2051C125.953 1.2051 127.063 1.2051 128.173 1.2051Z"/></svg>